<?xml version="1.0" encoding="utf-8"?>
<Project name="ANIMATICA" themeId="0" version="65538" templateID="SimpleProjectTemplate">
  <MediaItems>
    <MediaItem id="1" filePath="C:\Users\KIRASHI\Desktop\03- STORYBOARD\02- Imagenes\imagen01.jpg" arWidth="960" arHeight="540" duration="0" songTitle="" songArtist="" songAlbum="" />
    <MediaItem id="2" filePath="C:\Users\KIRASHI\Desktop\03- STORYBOARD\02- Imagenes\imagen02.jpg" arWidth="960" arHeight="540" duration="0" songTitle="" songArtist="" songAlbum="" />
    <MediaItem id="3" filePath="C:\Users\KIRASHI\Desktop\03- STORYBOARD\02- Imagenes\imagen03.jpg" arWidth="960" arHeight="540" duration="0" songTitle="" songArtist="" songAlbum="" />
    <MediaItem id="4" filePath="C:\Users\KIRASHI\Desktop\03- STORYBOARD\02- Imagenes\imagen04.jpg" arWidth="960" arHeight="540" duration="0" songTitle="" songArtist="" songAlbum="" />
    <MediaItem id="5" filePath="C:\Users\KIRASHI\Desktop\03- STORYBOARD\02- Imagenes\imagen05.jpg" arWidth="960" arHeight="540" duration="0" songTitle="" songArtist="" songAlbum="" />
    <MediaItem id="6" filePath="C:\Users\KIRASHI\Desktop\03- STORYBOARD\02- Imagenes\imagen06.jpg" arWidth="960" arHeight="540" duration="0" songTitle="" songArtist="" songAlbum="" />
    <MediaItem id="7" filePath="C:\Users\KIRASHI\Desktop\03- STORYBOARD\02- Imagenes\imagen07.jpg" arWidth="960" arHeight="540" duration="0" songTitle="" songArtist="" songAlbum="" />
    <MediaItem id="8" filePath="C:\Users\KIRASHI\Desktop\03- STORYBOARD\02- Imagenes\imagen08.jpg" arWidth="960" arHeight="540" duration="0" songTitle="" songArtist="" songAlbum="" />
    <MediaItem id="9" filePath="C:\Users\KIRASHI\Desktop\03- STORYBOARD\02- Imagenes\imagen09.jpg" arWidth="960" arHeight="540" duration="0" songTitle="" songArtist="" songAlbum="" />
    <MediaItem id="10" filePath="C:\Users\KIRASHI\Desktop\03- STORYBOARD\02- Imagenes\imagen10.jpg" arWidth="960" arHeight="540" duration="0" songTitle="" songArtist="" songAlbum="" />
    <MediaItem id="11" filePath="C:\Users\KIRASHI\Desktop\03- STORYBOARD\02- Imagenes\imagen11.jpg" arWidth="960" arHeight="540" duration="0" songTitle="" songArtist="" songAlbum="" />
    <MediaItem id="12" filePath="C:\Users\KIRASHI\Desktop\03- STORYBOARD\02- Imagenes\imagen12.jpg" arWidth="960" arHeight="540" duration="0" songTitle="" songArtist="" songAlbum="" />
    <MediaItem id="13" filePath="C:\Users\KIRASHI\Desktop\03- STORYBOARD\02- Imagenes\imagen13.jpg" arWidth="960" arHeight="540" duration="0" songTitle="" songArtist="" songAlbum="" />
    <MediaItem id="14" filePath="C:\Users\KIRASHI\Desktop\03- STORYBOARD\02- Imagenes\imagen14.jpg" arWidth="960" arHeight="540" duration="0" songTitle="" songArtist="" songAlbum="" />
    <MediaItem id="15" filePath="C:\Users\KIRASHI\Desktop\03- STORYBOARD\02- Imagenes\imagen15.jpg" arWidth="960" arHeight="540" duration="0" songTitle="" songArtist="" songAlbum="" />
    <MediaItem id="16" filePath="C:\Users\KIRASHI\Desktop\03- STORYBOARD\02- Imagenes\imagen16.jpg" arWidth="960" arHeight="540" duration="0" songTitle="" songArtist="" songAlbum="" />
    <MediaItem id="17" filePath="C:\Users\KIRASHI\Desktop\03- STORYBOARD\02- Imagenes\imagen17.jpg" arWidth="960" arHeight="540" duration="0" songTitle="" songArtist="" songAlbum="" />
    <MediaItem id="18" filePath="C:\Users\KIRASHI\Desktop\03- STORYBOARD\02- Imagenes\imagen18.jpg" arWidth="960" arHeight="540" duration="0" songTitle="" songArtist="" songAlbum="" />
    <MediaItem id="19" filePath="C:\Users\KIRASHI\Desktop\03- STORYBOARD\02- Imagenes\imagen19.jpg" arWidth="960" arHeight="540" duration="0" songTitle="" songArtist="" songAlbum="" />
    <MediaItem id="20" filePath="C:\Users\KIRASHI\Desktop\03- STORYBOARD\02- Imagenes\imagen20.jpg" arWidth="960" arHeight="540" duration="0" songTitle="" songArtist="" songAlbum="" />
    <MediaItem id="21" filePath="C:\Users\KIRASHI\Desktop\03- STORYBOARD\02- Imagenes\imagen21.jpg" arWidth="960" arHeight="540" duration="0" songTitle="" songArtist="" songAlbum="" />
    <MediaItem id="22" filePath="C:\Users\KIRASHI\Desktop\03- STORYBOARD\02- Imagenes\imagen22.jpg" arWidth="960" arHeight="540" duration="0" songTitle="" songArtist="" songAlbum="" />
    <MediaItem id="23" filePath="C:\Users\KIRASHI\Desktop\03- STORYBOARD\02- Imagenes\imagen23.jpg" arWidth="960" arHeight="540" duration="0" songTitle="" songArtist="" songAlbum="" />
    <MediaItem id="24" filePath="C:\Users\KIRASHI\Desktop\03- STORYBOARD\02- Imagenes\imagen24.jpg" arWidth="960" arHeight="540" duration="0" songTitle="" songArtist="" songAlbum="" />
    <MediaItem id="25" filePath="C:\Users\KIRASHI\Desktop\03- STORYBOARD\02- Imagenes\imagen25.jpg" arWidth="960" arHeight="540" duration="0" songTitle="" songArtist="" songAlbum="" />
    <MediaItem id="26" filePath="C:\Users\KIRASHI\Desktop\03- STORYBOARD\02- Imagenes\imagen26.jpg" arWidth="960" arHeight="540" duration="0" songTitle="" songArtist="" songAlbum="" />
    <MediaItem id="27" filePath="C:\Users\KIRASHI\Desktop\03- STORYBOARD\02- Imagenes\imagen27.jpg" arWidth="960" arHeight="540" duration="0" songTitle="" songArtist="" songAlbum="" />
    <MediaItem id="28" filePath="C:\Users\KIRASHI\Desktop\03- STORYBOARD\02- Imagenes\imagen28.jpg" arWidth="960" arHeight="540" duration="0" songTitle="" songArtist="" songAlbum="" />
    <MediaItem id="29" filePath="C:\Users\KIRASHI\Desktop\03- STORYBOARD\02- Imagenes\imagen29.jpg" arWidth="960" arHeight="540" duration="0" songTitle="" songArtist="" songAlbum="" />
    <MediaItem id="30" filePath="C:\Users\KIRASHI\Desktop\03- STORYBOARD\02- Imagenes\imagen30.jpg" arWidth="960" arHeight="540" duration="0" songTitle="" songArtist="" songAlbum="" />
    <MediaItem id="31" filePath="C:\Users\KIRASHI\Desktop\03- STORYBOARD\02- Imagenes\imagen31.jpg" arWidth="960" arHeight="540" duration="0" songTitle="" songArtist="" songAlbum="" />
    <MediaItem id="32" filePath="C:\Users\KIRASHI\Desktop\03- STORYBOARD\02- Imagenes\imagen32.jpg" arWidth="960" arHeight="540" duration="0" songTitle="" songArtist="" songAlbum="" />
    <MediaItem id="33" filePath="C:\Users\KIRASHI\Desktop\03- STORYBOARD\02- Imagenes\imagen33.jpg" arWidth="960" arHeight="540" duration="0" songTitle="" songArtist="" songAlbum="" />
    <MediaItem id="34" filePath="C:\Users\KIRASHI\Desktop\03- STORYBOARD\02- Imagenes\imagen34.jpg" arWidth="960" arHeight="540" duration="0" songTitle="" songArtist="" songAlbum="" />
    <MediaItem id="35" filePath="C:\Users\KIRASHI\Desktop\03- STORYBOARD\02- Imagenes\imagen35.jpg" arWidth="960" arHeight="540" duration="0" songTitle="" songArtist="" songAlbum="" />
    <MediaItem id="36" filePath="C:\Users\KIRASHI\Desktop\03- STORYBOARD\02- Imagenes\imagen36.jpg" arWidth="960" arHeight="540" duration="0" songTitle="" songArtist="" songAlbum="" />
    <MediaItem id="37" filePath="C:\Users\KIRASHI\Desktop\dialogo.png" arWidth="525" arHeight="425" duration="0" songTitle="" songArtist="" songAlbum="" />
    <MediaItem id="38" filePath="C:\Users\KIRASHI\Desktop\30.jpg" arWidth="960" arHeight="540" duration="0" songTitle="" songArtist="" songAlbum="" />
    <MediaItem id="39" filePath="C:\Users\KIRASHI\Desktop\7.jpg" arWidth="960" arHeight="540" duration="0" songTitle="" songArtist="" songAlbum="" />
  </MediaItems>
  <Extents>
    <TitleClip extentID="56" gapBefore="57" duration="4">
      <Effects>
        <TextEffect effectTemplateID="TextEffectTemplate" TextScriptId="0">
          <BoundProperties>
            <BoundPropertyBool Name="automatic" Value="false" />
            <BoundPropertyFloatSet Name="color">
              <BoundPropertyFloatElement Value="0" />
              <BoundPropertyFloatElement Value="0" />
              <BoundPropertyFloatElement Value="0" />
            </BoundPropertyFloatSet>
            <BoundPropertyStringSet Name="family">
              <BoundPropertyStringElement Value="Arial" />
            </BoundPropertyStringSet>
            <BoundPropertyBool Name="horizontal" Value="true" />
            <BoundPropertyStringSet Name="justify">
              <BoundPropertyStringElement Value="MIDDLE" />
            </BoundPropertyStringSet>
            <BoundPropertyFloatSet Name="length">
              <BoundPropertyFloatElement Value="4.0999999046325684" />
              <BoundPropertyFloatElement Value="5.1999998092651367" />
            </BoundPropertyFloatSet>
            <BoundPropertyFloat Name="maxExtent" Value="5" />
            <BoundPropertyFloatSet Name="position">
              <BoundPropertyFloatElement Value="2.9577879905700684" />
              <BoundPropertyFloatElement Value="-0.023255825042724609" />
              <BoundPropertyFloatElement Value="0.02500000037252903" />
            </BoundPropertyFloatSet>
            <BoundPropertyFloat Name="size" Value="0.23333333432674408" />
            <BoundPropertyStringSet Name="string">
              <BoundPropertyStringElement Value="MADRE: Hija, ve a " />
              <BoundPropertyStringElement Value="hacer " />
              <BoundPropertyStringElement Value="los deberes" />
              <BoundPropertyStringElement Value="HIJA: Vale, mamÃ¡!" />
            </BoundPropertyStringSet>
            <BoundPropertyString Name="style" Value="Plain" />
            <BoundPropertyFloat Name="transparency" Value="0" />
          </BoundProperties>
        </TextEffect>
      </Effects>
      <Transitions />
      <BoundProperties>
        <BoundPropertyFloatSet Name="diffuseColor">
          <BoundPropertyFloatElement Value="0.75" />
          <BoundPropertyFloatElement Value="1" />
          <BoundPropertyFloatElement Value="0" />
        </BoundPropertyFloatSet>
        <BoundPropertyFloat Name="transparency" Value="1" />
      </BoundProperties>
    </TitleClip>
    <ImageClip extentID="57" gapBefore="0" mediaItemID="39" duration="3">
      <Effects />
      <Transitions />
      <BoundProperties>
        <BoundPropertyInt Name="rotateStepNinety" Value="0" />
      </BoundProperties>
    </ImageClip>
    <TitleClip extentID="58" gapBefore="8" duration="3">
      <Effects>
        <TextEffect effectTemplateID="TextEffectTemplate" TextScriptId="0">
          <BoundProperties>
            <BoundPropertyBool Name="automatic" Value="false" />
            <BoundPropertyFloatSet Name="color">
              <BoundPropertyFloatElement Value="0" />
              <BoundPropertyFloatElement Value="0" />
              <BoundPropertyFloatElement Value="0" />
            </BoundPropertyFloatSet>
            <BoundPropertyStringSet Name="family">
              <BoundPropertyStringElement Value="Arial" />
            </BoundPropertyStringSet>
            <BoundPropertyBool Name="horizontal" Value="true" />
            <BoundPropertyStringSet Name="justify">
              <BoundPropertyStringElement Value="MIDDLE" />
            </BoundPropertyStringSet>
            <BoundPropertyFloatSet Name="length">
              <BoundPropertyFloatElement Value="4.0999999046325684" />
              <BoundPropertyFloatElement Value="5.1999998092651367" />
            </BoundPropertyFloatSet>
            <BoundPropertyFloat Name="maxExtent" Value="5" />
            <BoundPropertyFloatSet Name="position">
              <BoundPropertyFloatElement Value="-0.023289680480957031" />
              <BoundPropertyFloatElement Value="1.5581395626068115" />
              <BoundPropertyFloatElement Value="0.02500000037252903" />
            </BoundPropertyFloatSet>
            <BoundPropertyFloat Name="size" Value="0.60000002384185791" />
            <BoundPropertyStringSet Name="string">
              <BoundPropertyStringElement Value="HIJA: MamÃ¡!!!" />
            </BoundPropertyStringSet>
            <BoundPropertyString Name="style" Value="Plain" />
            <BoundPropertyFloat Name="transparency" Value="0" />
          </BoundProperties>
        </TextEffect>
      </Effects>
      <Transitions />
      <BoundProperties>
        <BoundPropertyFloatSet Name="diffuseColor">
          <BoundPropertyFloatElement Value="0.75" />
          <BoundPropertyFloatElement Value="1" />
          <BoundPropertyFloatElement Value="0" />
        </BoundPropertyFloatSet>
        <BoundPropertyFloat Name="transparency" Value="1" />
      </BoundProperties>
    </TitleClip>
    <ImageClip extentID="5" gapBefore="0" mediaItemID="1" duration="2">
      <Effects />
      <Transitions />
      <BoundProperties>
        <BoundPropertyInt Name="rotateStepNinety" Value="0" />
      </BoundProperties>
    </ImageClip>
    <ImageClip extentID="6" gapBefore="0" mediaItemID="2" duration="2">
      <Effects />
      <Transitions />
      <BoundProperties>
        <BoundPropertyInt Name="rotateStepNinety" Value="0" />
      </BoundProperties>
    </ImageClip>
    <ImageClip extentID="7" gapBefore="0" mediaItemID="3" duration="2">
      <Effects />
      <Transitions />
      <BoundProperties>
        <BoundPropertyInt Name="rotateStepNinety" Value="0" />
      </BoundProperties>
    </ImageClip>
    <ImageClip extentID="8" gapBefore="0" mediaItemID="4" duration="2">
      <Effects />
      <Transitions />
      <BoundProperties>
        <BoundPropertyInt Name="rotateStepNinety" Value="0" />
      </BoundProperties>
    </ImageClip>
    <TitleClip extentID="62" gapBefore="0" duration="4">
      <Effects />
      <Transitions />
      <BoundProperties>
        <BoundPropertyFloatSet Name="diffuseColor">
          <BoundPropertyFloatElement Value="0" />
          <BoundPropertyFloatElement Value="0" />
          <BoundPropertyFloatElement Value="0" />
        </BoundPropertyFloatSet>
        <BoundPropertyFloat Name="transparency" Value="0" />
      </BoundProperties>
    </TitleClip>
    <ImageClip extentID="9" gapBefore="0" mediaItemID="5" duration="1">
      <Effects />
      <Transitions />
      <BoundProperties>
        <BoundPropertyInt Name="rotateStepNinety" Value="0" />
      </BoundProperties>
    </ImageClip>
    <TitleClip extentID="63" gapBefore="0" duration="4">
      <Effects>
        <TextEffect effectTemplateID="TextEffectFadeZoomTemplate" TextScriptId="9">
          <BoundProperties>
            <BoundPropertyBool Name="automatic" Value="false" />
            <BoundPropertyFloatSet Name="color">
              <BoundPropertyFloatElement Value="1" />
              <BoundPropertyFloatElement Value="1" />
              <BoundPropertyFloatElement Value="1" />
            </BoundPropertyFloatSet>
            <BoundPropertyStringSet Name="family">
              <BoundPropertyStringElement Value="Arial" />
            </BoundPropertyStringSet>
            <BoundPropertyBool Name="horizontal" Value="true" />
            <BoundPropertyStringSet Name="justify">
              <BoundPropertyStringElement Value="MIDDLE" />
            </BoundPropertyStringSet>
            <BoundPropertyFloatSet Name="length" />
            <BoundPropertyFloat Name="maxExtent" Value="0" />
            <BoundPropertyFloatSet Name="position">
              <BoundPropertyFloatElement Value="0.11644840240478516" />
              <BoundPropertyFloatElement Value="1.5813953876495361" />
              <BoundPropertyFloatElement Value="0.02500000037252903" />
            </BoundPropertyFloatSet>
            <BoundPropertyFloat Name="size" Value="0.46666666865348816" />
            <BoundPropertyStringSet Name="string">
              <BoundPropertyStringElement Value="ANIMATICA PROYECTO " />
              <BoundPropertyStringElement Value="ANIMACIÃN 3D" />
              <BoundPropertyStringElement Value="" />
              <BoundPropertyStringElement Value="" />
              <BoundPropertyStringElement Value="" />
              <BoundPropertyStringElement Value="MARC DUQUE BARBERÃ" />
            </BoundPropertyStringSet>
            <BoundPropertyString Name="style" Value="Plain" />
            <BoundPropertyFloat Name="transparency" Value="0" />
          </BoundProperties>
        </TextEffect>
      </Effects>
      <Transitions />
      <BoundProperties>
        <BoundPropertyFloatSet Name="diffuseColor">
          <BoundPropertyFloatElement Value="0.75" />
          <BoundPropertyFloatElement Value="1" />
          <BoundPropertyFloatElement Value="0" />
        </BoundPropertyFloatSet>
        <BoundPropertyFloat Name="transparency" Value="1" />
      </BoundProperties>
    </TitleClip>
    <ImageClip extentID="10" gapBefore="0" mediaItemID="6" duration="2">
      <Effects />
      <Transitions />
      <BoundProperties>
        <BoundPropertyInt Name="rotateStepNinety" Value="0" />
      </BoundProperties>
    </ImageClip>
    <ImageClip extentID="11" gapBefore="0" mediaItemID="7" duration="2">
      <Effects />
      <Transitions />
      <BoundProperties>
        <BoundPropertyInt Name="rotateStepNinety" Value="0" />
      </BoundProperties>
    </ImageClip>
    <ImageClip extentID="12" gapBefore="0" mediaItemID="8" duration="2">
      <Effects />
      <Transitions />
      <BoundProperties>
        <BoundPropertyInt Name="rotateStepNinety" Value="0" />
      </BoundProperties>
    </ImageClip>
    <ImageClip extentID="13" gapBefore="0" mediaItemID="9" duration="2">
      <Effects />
      <Transitions />
      <BoundProperties>
        <BoundPropertyInt Name="rotateStepNinety" Value="0" />
      </BoundProperties>
    </ImageClip>
    <ImageClip extentID="14" gapBefore="0" mediaItemID="10" duration="2">
      <Effects />
      <Transitions />
      <BoundProperties>
        <BoundPropertyInt Name="rotateStepNinety" Value="0" />
      </BoundProperties>
    </ImageClip>
    <ImageClip extentID="15" gapBefore="0" mediaItemID="11" duration="2">
      <Effects />
      <Transitions />
      <BoundProperties>
        <BoundPropertyInt Name="rotateStepNinety" Value="0" />
      </BoundProperties>
    </ImageClip>
    <ImageClip extentID="16" gapBefore="0" mediaItemID="12" duration="2">
      <Effects />
      <Transitions />
      <BoundProperties>
        <BoundPropertyInt Name="rotateStepNinety" Value="0" />
      </BoundProperties>
    </ImageClip>
    <ImageClip extentID="17" gapBefore="0" mediaItemID="13" duration="2">
      <Effects />
      <Transitions />
      <BoundProperties>
        <BoundPropertyInt Name="rotateStepNinety" Value="0" />
      </BoundProperties>
    </ImageClip>
    <ImageClip extentID="18" gapBefore="0" mediaItemID="14" duration="2">
      <Effects />
      <Transitions />
      <BoundProperties>
        <BoundPropertyInt Name="rotateStepNinety" Value="0" />
      </BoundProperties>
    </ImageClip>
    <ImageClip extentID="19" gapBefore="0" mediaItemID="15" duration="2">
      <Effects />
      <Transitions />
      <BoundProperties>
        <BoundPropertyInt Name="rotateStepNinety" Value="0" />
      </BoundProperties>
    </ImageClip>
    <ImageClip extentID="20" gapBefore="0" mediaItemID="16" duration="2">
      <Effects />
      <Transitions />
      <BoundProperties>
        <BoundPropertyInt Name="rotateStepNinety" Value="0" />
      </BoundProperties>
    </ImageClip>
    <ImageClip extentID="21" gapBefore="0" mediaItemID="17" duration="2">
      <Effects />
      <Transitions />
      <BoundProperties>
        <BoundPropertyInt Name="rotateStepNinety" Value="0" />
      </BoundProperties>
    </ImageClip>
    <ImageClip extentID="22" gapBefore="0" mediaItemID="18" duration="2">
      <Effects />
      <Transitions />
      <BoundProperties>
        <BoundPropertyInt Name="rotateStepNinety" Value="0" />
      </BoundProperties>
    </ImageClip>
    <ImageClip extentID="23" gapBefore="0" mediaItemID="19" duration="2">
      <Effects />
      <Transitions />
      <BoundProperties>
        <BoundPropertyInt Name="rotateStepNinety" Value="0" />
      </BoundProperties>
    </ImageClip>
    <ImageClip extentID="24" gapBefore="0" mediaItemID="20" duration="2">
      <Effects />
      <Transitions />
      <BoundProperties>
        <BoundPropertyInt Name="rotateStepNinety" Value="0" />
      </BoundProperties>
    </ImageClip>
    <ImageClip extentID="25" gapBefore="0" mediaItemID="21" duration="2">
      <Effects />
      <Transitions />
      <BoundProperties>
        <BoundPropertyInt Name="rotateStepNinety" Value="0" />
      </BoundProperties>
    </ImageClip>
    <ImageClip extentID="26" gapBefore="0" mediaItemID="22" duration="2">
      <Effects />
      <Transitions />
      <BoundProperties>
        <BoundPropertyInt Name="rotateStepNinety" Value="0" />
      </BoundProperties>
    </ImageClip>
    <ImageClip extentID="27" gapBefore="0" mediaItemID="23" duration="2">
      <Effects />
      <Transitions />
      <BoundProperties>
        <BoundPropertyInt Name="rotateStepNinety" Value="0" />
      </BoundProperties>
    </ImageClip>
    <ImageClip extentID="28" gapBefore="0" mediaItemID="24" duration="2">
      <Effects />
      <Transitions />
      <BoundProperties>
        <BoundPropertyInt Name="rotateStepNinety" Value="0" />
      </BoundProperties>
    </ImageClip>
    <ImageClip extentID="29" gapBefore="0" mediaItemID="25" duration="2">
      <Effects />
      <Transitions />
      <BoundProperties>
        <BoundPropertyInt Name="rotateStepNinety" Value="0" />
      </BoundProperties>
    </ImageClip>
    <ImageClip extentID="30" gapBefore="0" mediaItemID="26" duration="2">
      <Effects />
      <Transitions />
      <BoundProperties>
        <BoundPropertyInt Name="rotateStepNinety" Value="0" />
      </BoundProperties>
    </ImageClip>
    <ImageClip extentID="31" gapBefore="0" mediaItemID="27" duration="2">
      <Effects />
      <Transitions />
      <BoundProperties>
        <BoundPropertyInt Name="rotateStepNinety" Value="0" />
      </BoundProperties>
    </ImageClip>
    <ImageClip extentID="32" gapBefore="0" mediaItemID="28" duration="2">
      <Effects />
      <Transitions />
      <BoundProperties>
        <BoundPropertyInt Name="rotateStepNinety" Value="0" />
      </BoundProperties>
    </ImageClip>
    <ImageClip extentID="33" gapBefore="0" mediaItemID="29" duration="2">
      <Effects />
      <Transitions />
      <BoundProperties>
        <BoundPropertyInt Name="rotateStepNinety" Value="0" />
      </BoundProperties>
    </ImageClip>
    <ImageClip extentID="35" gapBefore="0" mediaItemID="31" duration="2">
      <Effects />
      <Transitions />
      <BoundProperties>
        <BoundPropertyInt Name="rotateStepNinety" Value="0" />
      </BoundProperties>
    </ImageClip>
    <ImageClip extentID="36" gapBefore="0" mediaItemID="32" duration="2">
      <Effects />
      <Transitions />
      <BoundProperties>
        <BoundPropertyInt Name="rotateStepNinety" Value="0" />
      </BoundProperties>
    </ImageClip>
    <ImageClip extentID="37" gapBefore="0" mediaItemID="33" duration="4">
      <Effects />
      <Transitions />
      <BoundProperties>
        <BoundPropertyInt Name="rotateStepNinety" Value="0" />
      </BoundProperties>
    </ImageClip>
    <ImageClip extentID="38" gapBefore="0" mediaItemID="34" duration="2">
      <Effects />
      <Transitions />
      <BoundProperties>
        <BoundPropertyInt Name="rotateStepNinety" Value="0" />
      </BoundProperties>
    </ImageClip>
    <ImageClip extentID="39" gapBefore="0" mediaItemID="35" duration="4">
      <Effects />
      <Transitions />
      <BoundProperties>
        <BoundPropertyInt Name="rotateStepNinety" Value="0" />
      </BoundProperties>
    </ImageClip>
    <ImageClip extentID="40" gapBefore="0" mediaItemID="36" duration="4">
      <Effects />
      <Transitions />
      <BoundProperties>
        <BoundPropertyInt Name="rotateStepNinety" Value="0" />
      </BoundProperties>
    </ImageClip>
    <ImageClip extentID="51" gapBefore="0" mediaItemID="38" duration="4">
      <Effects />
      <Transitions />
      <BoundProperties>
        <BoundPropertyInt Name="rotateStepNinety" Value="0" />
      </BoundProperties>
    </ImageClip>
    <ExtentSelector extentID="1" gapBefore="0" primaryTrack="true">
      <Effects />
      <Transitions />
      <BoundProperties />
      <ExtentRefs>
        <ExtentRef id="62" />
        <ExtentRef id="5" />
        <ExtentRef id="6" />
        <ExtentRef id="7" />
        <ExtentRef id="8" />
        <ExtentRef id="9" />
        <ExtentRef id="10" />
        <ExtentRef id="11" />
        <ExtentRef id="12" />
        <ExtentRef id="13" />
        <ExtentRef id="14" />
        <ExtentRef id="15" />
        <ExtentRef id="16" />
        <ExtentRef id="17" />
        <ExtentRef id="18" />
        <ExtentRef id="19" />
        <ExtentRef id="20" />
        <ExtentRef id="21" />
        <ExtentRef id="22" />
        <ExtentRef id="23" />
        <ExtentRef id="24" />
        <ExtentRef id="25" />
        <ExtentRef id="26" />
        <ExtentRef id="27" />
        <ExtentRef id="28" />
        <ExtentRef id="29" />
        <ExtentRef id="30" />
        <ExtentRef id="31" />
        <ExtentRef id="32" />
        <ExtentRef id="33" />
        <ExtentRef id="51" />
        <ExtentRef id="35" />
        <ExtentRef id="36" />
        <ExtentRef id="37" />
        <ExtentRef id="57" />
        <ExtentRef id="38" />
        <ExtentRef id="39" />
        <ExtentRef id="40" />
      </ExtentRefs>
    </ExtentSelector>
    <ExtentSelector extentID="2" gapBefore="0" primaryTrack="false">
      <Effects />
      <Transitions />
      <BoundProperties />
      <ExtentRefs />
    </ExtentSelector>
    <ExtentSelector extentID="3" gapBefore="0" primaryTrack="false">
      <Effects />
      <Transitions />
      <BoundProperties />
      <ExtentRefs />
    </ExtentSelector>
    <ExtentSelector extentID="4" gapBefore="0" primaryTrack="false">
      <Effects />
      <Transitions />
      <BoundProperties />
      <ExtentRefs>
        <ExtentRef id="63" />
        <ExtentRef id="56" />
        <ExtentRef id="58" />
      </ExtentRefs>
    </ExtentSelector>
  </Extents>
  <BoundPlaceholders>
    <BoundPlaceholder placeholderID="SingleExtentView" extentID="0" />
    <BoundPlaceholder placeholderID="Main" extentID="1" />
    <BoundPlaceholder placeholderID="SoundTrack" extentID="2" />
    <BoundPlaceholder placeholderID="Text" extentID="4" />
    <BoundPlaceholder placeholderID="Narration" extentID="3" />
  </BoundPlaceholders>
  <BoundProperties>
    <BoundPropertyFloatSet Name="AspectRatio">
      <BoundPropertyFloatElement Value="1.7777776718139648" />
    </BoundPropertyFloatSet>
    <BoundPropertyFloat Name="SoundTrackMix" Value="0.5" />
  </BoundProperties>
  <ThemeOperationLog themeID="0">
    <MonolithicThemeOperations />
  </ThemeOperationLog>
</Project>